<svg width="800" height="600" viewBox="0 0 800 600" xmlns="http://www.w3.org/2000/svg">
  <defs>
    <linearGradient id="heroGrad" x1="0%" y1="0%" x2="100%" y2="100%">
      <stop offset="0%" style="stop-color:#f8fafc"/>
      <stop offset="100%" style="stop-color:#e2e8f0"/>
    </linearGradient>
    <linearGradient id="iconGrad" x1="0%" y1="0%" x2="100%" y2="100%">
      <stop offset="0%" style="stop-color:#6366f1"/>
      <stop offset="100%" style="stop-color:#8b5cf6"/>
    </linearGradient>
  </defs>
  <rect width="800" height="600" fill="url(#heroGrad)"/>
  <g transform="translate(400,300)">
    <!-- Background circles -->
    <circle cx="0" cy="0" r="120" fill="url(#iconGrad)" opacity="0.05"/>
    <circle cx="0" cy="0" r="80" fill="url(#iconGrad)" opacity="0.1"/>
    <circle cx="0" cy="0" r="50" fill="url(#iconGrad)" opacity="0.15"/>
    
    <!-- Main AI/Marketing icon -->
    <g fill="url(#iconGrad)">
      <!-- Central brain/network -->
      <circle cx="-30" cy="-20" r="4"/>
      <circle cx="0" cy="-30" r="4"/>
      <circle cx="30" cy="-20" r="4"/>
      <circle cx="-15" cy="10" r="4"/>
      <circle cx="15" cy="10" r="4"/>
      <circle cx="0" cy="30" r="4"/>
      
      <!-- Connection lines -->
      <line x1="-30" y1="-20" x2="0" y2="-30" stroke="url(#iconGrad)" stroke-width="3"/>
      <line x1="0" y1="-30" x2="30" y2="-20" stroke="url(#iconGrad)" stroke-width="3"/>
      <line x1="-30" y1="-20" x2="-15" y2="10" stroke="url(#iconGrad)" stroke-width="3"/>
      <line x1="0" y1="-30" x2="-15" y2="10" stroke="url(#iconGrad)" stroke-width="3"/>
      <line x1="0" y1="-30" x2="15" y2="10" stroke="url(#iconGrad)" stroke-width="3"/>
      <line x1="30" y1="-20" x2="15" y2="10" stroke="url(#iconGrad)" stroke-width="3"/>
      <line x1="-15" y1="10" x2="0" y2="30" stroke="url(#iconGrad)" stroke-width="3"/>
      <line x1="15" y1="10" x2="0" y2="30" stroke="url(#iconGrad)" stroke-width="3"/>
    </g>
    
    <!-- Floating elements -->
    <circle cx="-80" cy="-50" r="3" fill="url(#iconGrad)" opacity="0.6"/>
    <circle cx="80" cy="-50" r="3" fill="url(#iconGrad)" opacity="0.6"/>
    <circle cx="-60" cy="60" r="2" fill="url(#iconGrad)" opacity="0.4"/>
    <circle cx="60" cy="60" r="2" fill="url(#iconGrad)" opacity="0.4"/>
  </g>
</svg>









